<?xml version="1.0" encoding="utf-8"?>
<svg xmlns="http://www.w3.org/2000/svg" viewBox="0 0 50 50" fill="#fffffe"><path d="M 19 0 C 8.621094 0 0 7.492188 0 16.90625 C 0 21.460938 2.042969 25.589844 5.3125 28.625 C 4.832031 30.042969 3.8125 31.171875 2.71875 32.0625 C 2.109375 32.558594 1.515625 32.984375 1.03125 33.40625 C 0.789063 33.617188 0.566406 33.804688 0.375 34.09375 C 0.183594 34.382813 -0.0117188 34.882813 0.125 35.375 L 0.25 35.75 L 0.59375 35.96875 C 1.632813 36.558594 2.894531 36.625 4.21875 36.53125 C 5.542969 36.4375 6.972656 36.136719 8.375 35.75 C 10.308594 35.21875 11.964844 34.585938 13.34375 34.03125 C 16.132813 40.5 23.082031 44.8125 31 44.8125 C 32.34375 44.8125 33.699219 44.628906 34.96875 44.4375 C 36.335938 45.042969 42.300781 47.59375 46.4375 47.59375 C 47.625 47.59375 48.546875 47.382813 49.28125 46.96875 L 49.65625 46.75 L 49.75 46.375 C 50.042969 45.304688 49.136719 44.554688 47.96875 43.625 C 46.792969 42.691406 45.238281 41.449219 44.5625 39.71875 C 47.96875 36.578125 49.90625 32.3125 49.90625 27.90625 C 49.90625 20.710938 44.65625 14.210938 37.09375 11.90625 C 34.707031 4.972656 27.457031 0 19 0 Z M 19 2 C 26.617188 2 32.972656 6.398438 35.125 12.40625 C 35.132813 12.429688 35.148438 12.445313 35.15625 12.46875 C 35.167969 12.5 35.175781 12.53125 35.1875 12.5625 C 35.324219 12.957031 35.433594 13.34375 35.53125 13.75 C 35.601563 14.03125 35.636719 14.304688 35.6875 14.59375 C 35.699219 14.667969 35.707031 14.738281 35.71875 14.8125 C 35.761719 15.078125 35.816406 15.355469 35.84375 15.625 C 35.847656 15.664063 35.839844 15.710938 35.84375 15.75 C 35.875 16.128906 35.90625 16.519531 35.90625 16.90625 C 35.90625 17.417969 35.871094 17.90625 35.8125 18.40625 C 35.753906 18.914063 35.675781 19.414063 35.5625 19.90625 C 35.335938 20.875 34.992188 21.796875 34.5625 22.6875 C 34.132813 23.578125 33.613281 24.425781 33 25.21875 C 32.695313 25.613281 32.347656 26.007813 32 26.375 C 31.652344 26.742188 31.292969 27.101563 30.90625 27.4375 C 30.527344 27.769531 30.132813 28.105469 29.71875 28.40625 C 27.617188 29.925781 25.078125 31.003906 22.3125 31.5 C 21.207031 31.699219 20.078125 31.8125 18.90625 31.8125 C 18.230469 31.8125 17.558594 31.777344 16.90625 31.71875 C 16.875 31.714844 16.84375 31.722656 16.8125 31.71875 C 16.726563 31.710938 16.644531 31.695313 16.5625 31.6875 C 16.332031 31.660156 16.09375 31.628906 15.875 31.59375 C 15.578125 31.546875 15.304688 31.5 15.03125 31.4375 L 14.71875 31.34375 L 14.40625 31.46875 C 13.117188 32.011719 10.488281 33.117188 7.84375 33.84375 C 6.519531 34.207031 5.183594 34.480469 4.0625 34.5625 C 3.566406 34.597656 3.359375 34.449219 2.96875 34.40625 C 3.289063 34.15625 3.558594 33.957031 3.96875 33.625 C 5.300781 32.539063 6.941406 30.96875 7.46875 28.625 L 7.59375 28.03125 L 7.15625 27.625 C 3.957031 24.894531 2 21.09375 2 16.90625 C 2 8.71875 9.578125 2 19 2 Z" fill="#fffffe"/></svg>
