<?xml version="1.0" ?><!DOCTYPE svg  PUBLIC '-//W3C//DTD SVG 1.1//EN'  'http://www.w3.org/Graphics/SVG/1.1/DTD/svg11.dtd'><svg width="48px" height="48px" viewBox="0 0 48 48" enable-background="new 0 0 48 48" id="_x3C_Layer_x3E_" version="1.1" xml:space="preserve" xmlns="http://www.w3.org/2000/svg" xmlns:xlink="http://www.w3.org/1999/xlink"><g id="result_x2C__clipboard_x2C__check_mark"><path d="M40.5,45.5h-33c-0.553,0-1-0.448-1-1v-38c0-0.552,0.447-1,1-1h33c0.553,0,1,0.448,1,1v38   C41.5,45.052,41.053,45.5,40.5,45.5z" fill="#8C9EFF" id="XMLID_206_"/><path d="M40.5,46h-33C6.673,46,6,45.327,6,44.5v-38C6,5.673,6.673,5,7.5,5h7.042c0.276,0,0.5,0.224,0.5,0.5   S14.818,6,14.542,6H7.5C7.224,6,7,6.224,7,6.5v38C7,44.776,7.224,45,7.5,45h33c0.276,0,0.5-0.224,0.5-0.5v-38   C41,6.224,40.776,6,40.5,6h-6.957c-0.276,0-0.5-0.224-0.5-0.5s0.224-0.5,0.5-0.5H40.5C41.327,5,42,5.673,42,6.5v38   C42,45.327,41.327,46,40.5,46z" fill="#0277BD"/><path d="M32.319,42.5H10c-0.276,0-0.5-0.224-0.5-0.5V8c0-0.276,0.224-0.5,0.5-0.5h28   c0.276,0,0.5,0.224,0.5,0.5v29.266c0,0.148-0.066,0.289-0.18,0.384l-5.681,4.734C32.55,42.459,32.437,42.5,32.319,42.5z" fill="#F5F5F5" id="XMLID_163_"/><path d="M32.675,42H10V8h4.5C14.776,8,15,8.224,15,8.5S14.776,9,14.5,9H11v32h21.325L37,37.26V9h-3.5   C33.224,9,33,8.776,33,8.5S33.224,8,33.5,8H38v29.741L32.675,42z" fill="#FFFFFF"/><path d="M32.319,43H10c-0.551,0-1-0.449-1-1V8c0-0.551,0.449-1,1-1h4.5C14.776,7,15,7.224,15,7.5S14.776,8,14.5,8   H10v34h22.319L38,37.266V8h-4.5C33.224,8,33,7.776,33,7.5S33.224,7,33.5,7H38c0.551,0,1,0.449,1,1v29.266   c0,0.296-0.13,0.576-0.358,0.767l-5.682,4.735C32.78,42.918,32.553,43,32.319,43z" fill="#0277BD"/><path d="M7.5,43C7.224,43,7,42.776,7,42.5v-34C7,8.224,7.224,8,7.5,8S8,8.224,8,8.5v34C8,42.776,7.776,43,7.5,43z" fill="#E8EAF6"/><g><path d="M32.5,42.073V38c0-0.276,0.224-0.5,0.5-0.5h4.947c0.188,0,0.272,0.234,0.128,0.354    l-5.247,4.373C32.698,42.335,32.5,42.243,32.5,42.073z" fill="#EEEEEE" id="XMLID_10_"/><path d="M32.702,42.774c-0.101,0-0.203-0.022-0.299-0.067C32.154,42.59,32,42.348,32,42.073V38    c0-0.551,0.449-1,1-1h4.947c0.299,0,0.558,0.182,0.659,0.463c0.101,0.281,0.018,0.585-0.212,0.776l-5.246,4.372    C33.019,42.718,32.862,42.774,32.702,42.774z M33,38v3.433L37.119,38H33z" fill="#0277BD"/></g><g><path d="M26.831,4.5c-0.413-1.163-1.512-2-2.816-2c-1.304,0-2.402,0.837-2.815,2h-4.185    c-0.275,0-0.5,0.224-0.5,0.5v4c0,0.276,0.225,0.5,0.5,0.5h14c0.276,0,0.5-0.224,0.5-0.5V5c0-0.276-0.224-0.5-0.5-0.5H26.831z" fill="#EEEEEE" id="XMLID_5_"/><path d="M31.015,10h-14c-0.551,0-1-0.449-1-1V5c0-0.551,0.449-1,1-1h3.851c0.575-1.209,1.799-2,3.149-2    c1.351,0,2.575,0.791,3.15,2h3.85c0.551,0,1,0.449,1,1v4C32.015,9.551,31.566,10,31.015,10z M17.015,5v4h14V5h-4.184    c-0.211,0-0.4-0.133-0.471-0.333C26.005,3.67,25.063,3,24.015,3c-1.048,0-1.99,0.67-2.344,1.667C21.6,4.867,21.411,5,21.199,5    H17.015z" fill="#0277BD"/></g><path d="M17.515,8c-0.276,0-0.5-0.224-0.5-0.5V5h4.184c0.211,0,0.401-0.133,0.471-0.333   C22.024,3.67,22.967,3,24.015,3c0.276,0,0.5,0.224,0.5,0.5S24.291,4,24.015,4c-0.625,0-1.189,0.403-1.403,1.002   C22.4,5.599,21.832,6,21.198,6h-3.184v1.5C18.015,7.776,17.791,8,17.515,8z" fill="#FFFFFF"/><g><path d="M18.5,35h-4c-0.276,0-0.5-0.224-0.5-0.5v-4c0-0.276,0.224-0.5,0.5-0.5h4c0.276,0,0.5,0.224,0.5,0.5v4    C19,34.776,18.776,35,18.5,35z M15,34h3v-3h-3V34z" fill="#0277BD"/><path d="M18.5,27h-4c-0.276,0-0.5-0.224-0.5-0.5v-4c0-0.276,0.224-0.5,0.5-0.5h4c0.276,0,0.5,0.224,0.5,0.5v4    C19,26.776,18.776,27,18.5,27z M15,26h3v-3h-3V26z" fill="#0277BD"/><path d="M18.5,19h-4c-0.276,0-0.5-0.224-0.5-0.5v-4c0-0.276,0.224-0.5,0.5-0.5h4c0.276,0,0.5,0.224,0.5,0.5v4    C19,18.776,18.776,19,18.5,19z M15,18h3v-3h-3V18z" fill="#0277BD"/><path d="M33.5,34h-12c-0.276,0-0.5-0.224-0.5-0.5s0.224-0.5,0.5-0.5h12c0.276,0,0.5,0.224,0.5,0.5    S33.776,34,33.5,34z" fill="#0277BD"/><path d="M33.5,32h-12c-0.276,0-0.5-0.224-0.5-0.5s0.224-0.5,0.5-0.5h12c0.276,0,0.5,0.224,0.5,0.5    S33.776,32,33.5,32z" fill="#0277BD"/><path d="M33.5,26h-12c-0.276,0-0.5-0.224-0.5-0.5s0.224-0.5,0.5-0.5h12c0.276,0,0.5,0.224,0.5,0.5    S33.776,26,33.5,26z" fill="#0277BD"/><path d="M33.5,24h-12c-0.276,0-0.5-0.224-0.5-0.5s0.224-0.5,0.5-0.5h12c0.276,0,0.5,0.224,0.5,0.5    S33.776,24,33.5,24z" fill="#0277BD"/><path d="M33.5,18h-12c-0.276,0-0.5-0.224-0.5-0.5s0.224-0.5,0.5-0.5h12c0.276,0,0.5,0.224,0.5,0.5    S33.776,18,33.5,18z" fill="#0277BD"/><path d="M33.5,16h-12c-0.276,0-0.5-0.224-0.5-0.5s0.224-0.5,0.5-0.5h12c0.276,0,0.5,0.224,0.5,0.5    S33.776,16,33.5,16z" fill="#0277BD"/></g></g></svg>